<svg width="32" height="33" viewBox="0 0 32 33" fill="none" xmlns="http://www.w3.org/2000/svg">
<path d="M22.25 4.9729C19.6688 4.9729 17.4088 6.0829 16 7.95915C14.5912 6.0829 12.3313 4.9729 9.75 4.9729C7.69528 4.97522 5.72539 5.79248 4.27248 7.24538C2.81958 8.69829 2.00232 10.6682 2 12.7229C2 21.4729 14.9738 28.5554 15.5262 28.8479C15.6719 28.9262 15.8346 28.9672 16 28.9672C16.1654 28.9672 16.3281 28.9262 16.4737 28.8479C17.0262 28.5554 30 21.4729 30 12.7229C29.9977 10.6682 29.1804 8.69829 27.7275 7.24538C26.2746 5.79248 24.3047 4.97522 22.25 4.9729ZM16 26.8229C13.7175 25.4929 4 19.4342 4 12.7229C4.00198 11.1985 4.60842 9.73713 5.68633 8.65923C6.76423 7.58132 8.22561 6.97488 9.75 6.9729C12.1812 6.9729 14.2225 8.2679 15.075 10.3479C15.1503 10.5313 15.2785 10.6882 15.4432 10.7986C15.6079 10.909 15.8017 10.9679 16 10.9679C16.1983 10.9679 16.3921 10.909 16.5568 10.7986C16.7215 10.6882 16.8497 10.5313 16.925 10.3479C17.7775 8.26415 19.8188 6.9729 22.25 6.9729C23.7744 6.97488 25.2358 7.58132 26.3137 8.65923C27.3916 9.73713 27.998 11.1985 28 12.7229C28 19.4242 18.28 25.4917 16 26.8229Z" fill="white"/>
</svg>
