<svg width="39" height="43" viewBox="0 0 39 43" fill="none" xmlns="http://www.w3.org/2000/svg">
<path d="M0 39.5872V3.28914C0.000243177 3.21039 0.0237312 3.13346 0.0675189 3.06801C0.111307 3.00255 0.173445 2.95148 0.246141 2.9212C0.318838 2.89092 0.398857 2.88277 0.476164 2.89779C0.553471 2.9128 0.624625 2.9503 0.680704 3.00559L19.5806 21.4372L0.680704 39.8707C0.624625 39.926 0.553471 39.9635 0.476164 39.9785C0.398857 39.9935 0.318838 39.9854 0.246141 39.9551C0.173445 39.9248 0.111307 39.8738 0.0675189 39.8083C0.0237312 39.7429 0.000243177 39.6659 0 39.5872ZM27.5052 29.0109L3.80714 42.0671L3.79236 42.0754C3.38412 42.2971 2.9962 41.7447 3.33055 41.4233L21.9072 23.6604L27.5052 29.0109ZM3.3324 1.45115C2.9962 1.12973 3.38412 0.577408 3.79421 0.799076L3.80898 0.807392L27.5052 13.8636L21.9072 19.2159L3.3324 1.45115ZM37.072 23.7463L30.4543 27.3909L24.2319 21.4372L30.4543 15.4864L37.072 19.1282C38.8721 20.1229 38.8721 22.7515 37.072 23.7463Z" fill="white"/>
</svg>
